<svg width="46" height="46" fill="none" xmlns="http://www.w3.org/2000/svg">
  <circle cx="23" cy="23" r="23" fill="#FF6800"></circle>
  <path d="M18.096 33.435c3.111-9.9 12.118-11.828 16.232-11.554 2.214 5.546-.474 9.616-2.094 10.958-5.147 5.367-11.57 2.633-14.138.596z" fill="#fff"></path>
  <path d="M14.266 26.232c2.761-11.118 10.737-9.914 14.851-9.64 10.922 7.338.336 3.657-5.187 8.72-6.443 7.823-9.664 17.028-9.664.92z" fill="#FF6800"></path>
  <path d="M24.15 20.095a4.54 4.54 0 004.86-4.193 4.534 4.534 0 00-4.185-4.862 4.54 4.54 0 00-4.864 4.28 2.803 2.803 0 00-1.963-1.017 2.818 2.818 0 00-.418 5.62 2.818 2.818 0 002.944-2.148 4.525 4.525 0 003.627 2.32z" fill="#fff"></path>
  <path fill-rule="evenodd" clip-rule="evenodd" d="M29.891 16.186a5.329 5.329 0 00-5.315-5.785 5.335 5.335 0 00-5.073 3.674 3.794 3.794 0 00-1.944-.533c-.728 0-1.408.204-1.986.558-2.202 1.346-2.414 5.095-.324 6.61-2.036 3.427-3.009 9.686.627 16.252l.939 1.696.568-1.852c.222-.723.507-1.52.862-2.359 1.851 1.425 4.218 2.343 6.729 2.343 6.032 0 10.921-4.873 10.921-10.884 0-1.577-.337-3.078-.945-4.434a10.94 10.94 0 00-5.059-5.286zm-5.315-4.145l-.17.001c-1.655.02-3.417 1.536-4.007 3.147-.095.262-.333.458-.612.458-.38-.312-1.166-.825-2.065-.825-1.508 0-2.173 1.131-2.173 1.131s.187-.11 1.197-.184c1.009-.075 2.168.454 3.067 1.397 0 0-1.367-.56-2.693-.556 0 0-.16.585.439.729.512.123.907-.303.907-.303 0 .535-.51 1.095-1.047 1.095a1.359 1.359 0 01-1.325-1.417c-.545.072-.845.322-.845.322-.299 1.43.944 2.578 2.135 2.578 2.18 0 2.88-2.131 2.88-2.131v-.697a8.564 8.564 0 011.226-1.965 6.324 6.324 0 014.307-2.258c-1.868.783-2.239 1.66-2.43 1.805 0 0 .131.821.954.821.673 0 .898-.373.898-.373s-.075 1.544-1.57 1.544a1.346 1.346 0 01-1.309-1.021c-.617.725-.721 1.065-.976 2 0 .031.011.106.048.214.029.085.062.157.081.195a3.687 3.687 0 003.083 1.66 3.686 3.686 0 003.69-3.684 3.686 3.686 0 00-3.69-3.683zm-3.836 7.382c-.602.913-2.333 1.747-3.688 1.506-1.786 2.68-2.811 7.878-.57 13.485.974-2.465 2.536-5.355 4.847-7.822 2.721-2.907 6.49-5.234 11.524-5.565a9.312 9.312 0 00-3.373-3.202 5.336 5.336 0 01-4.904 3.223 5.325 5.325 0 01-3.836-1.625zm-1.785 13.49c1.63 1.358 3.772 2.237 6.019 2.237 5.123 0 9.276-4.139 9.276-9.244a9.192 9.192 0 00-.599-3.274c-4.897.124-8.507 2.289-11.119 5.079-1.517 1.62-2.694 3.45-3.577 5.202z" fill="#101117"></path>
</svg>